<svg xmlns="http://www.w3.org/2000/svg" width="1040" height="250" viewBox="0 0 1040 250">
  <rect width="1040" height="250" rx="12" ry="12" fill="#111827"/>
  <rect x="20" y="20" width="1000" height="210" rx="10" ry="10" fill="#E5E7EB"/>
  <rect x="20" y="20" width="10" height="210" fill="#F59E0B"/>
  <text x="50" y="70" font-family="Arial, sans-serif" font-size="26" fill="#6B7280" font-weight="bold">Akil Ismail</text>
  <text x="50" y="110" font-family="Arial, sans-serif" font-size="38" fill="#000" font-weight="bold">FREELANCE REACH</text>
  <rect x="50" y="140" width="90" height="34" rx="6" fill="#374151"/>
  <text x="60" y="162" font-family="Arial, sans-serif" font-size="16" fill="#fff">ReactJS</text>
  <rect x="150" y="140" width="90" height="34" rx="6" fill="#374151"/>
  <text x="160" y="162" font-family="Arial, sans-serif" font-size="16" fill="#fff">Laravel</text>
  <rect x="250" y="140" width="90" height="34" rx="6" fill="#374151"/>
  <text x="260" y="162" font-family="Arial, sans-serif" font-size="16" fill="#fff">NodeJS</text>
  <rect x="350" y="140" width="160" height="34" rx="6" fill="#374151"/>
  <text x="360" y="162" font-family="Arial, sans-serif" font-size="16" fill="#fff">OpenAI Integration</text>
  <circle cx="940" cy="125" r="55" fill="#fff" stroke="#1F2937" stroke-width="4"/>
  <path d="M940 85 L960 135 L920 135 Z" fill="#3B82F6"/>
  <path d="M940 85 L955 130 L925 130 Z" fill="#60A5FA"/>
</svg>
