<svg xmlns="http://www.w3.org/2000/svg" width="1040" height="250" viewBox="0 0 1040 250">
  <rect width="1040" height="250" rx="12" ry="12" fill="#ffffff"/>
  <rect x="20" y="20" width="10" height="210" fill="#FF0000"/>
  <text x="50" y="70" font-family="Arial, sans-serif" font-size="26" fill="#6B7280" font-weight="bold">Akil Ismail</text>
  <text x="50" y="110" font-family="Arial, sans-serif" font-size="38" fill="#000" font-weight="bold">FREELANCE REACH</text>
  
  <!-- Skill tags -->
  <rect x="50" y="140" width="90" height="34" rx="6" fill="#374151"/>
  <text x="60" y="162" font-family="Arial, sans-serif" font-size="16" fill="#fff">ReactJS</text>
  <rect x="150" y="140" width="90" height="34" rx="6" fill="#374151"/>
  <text x="160" y="162" font-family="Arial, sans-serif" font-size="16" fill="#fff">Laravel</text>
  <rect x="250" y="140" width="90" height="34" rx="6" fill="#374151"/>
  <text x="260" y="162" font-family="Arial, sans-serif" font-size="16" fill="#fff">NodeJS</text>
  <rect x="350" y="140" width="160" height="34" rx="6" fill="#374151"/>
  <text x="360" y="162" font-family="Arial, sans-serif" font-size="16" fill="#fff">OpenAI Integration</text>

  <!-- Outer frame circle -->
  <circle cx="940" cy="125" r="55" fill="#fff" stroke="#1F2937" stroke-width="4"/>

  <!-- Bullseye -->
  <circle cx="940" cy="125" r="35" fill="none" stroke="#ff0000" stroke-width="4"/>
  <circle cx="940" cy="125" r="12" fill="none" stroke="#ff0000" stroke-width="2"/>
  
  <!-- Vertical lines (outer to near center) -->
  <line x1="940" y1="75" x2="940" y2="118" stroke="#ff0000" stroke-width="4"/>
  <line x1="940" y1="132" x2="940" y2="175" stroke="#ff0000" stroke-width="4"/>
  
  <!-- Horizontal lines (outer to near center) -->
  <line x1="890" y1="125" x2="933" y2="125" stroke="#ff0000" stroke-width="4"/>
  <line x1="947" y1="125" x2="990" y2="125" stroke="#ff0000" stroke-width="4"/>
</svg>
